<?xml version="1.0" standalone="no"?>
<!DOCTYPE svg PUBLIC "-//W3C//DTD SVG 20010904//EN"
 "http://www.w3.org/TR/2001/REC-SVG-20010904/DTD/svg10.dtd">
<svg version="1.0" xmlns="http://www.w3.org/2000/svg"
 width="700.000000pt" height="700.000000pt" viewBox="0 0 700.000000 700.000000"
 preserveAspectRatio="xMidYMid meet">
<metadata>
Created by potrace 1.14, written by Peter Selinger 2001-2017
</metadata>
<g transform="translate(0.000000,700.000000) scale(0.100000,-0.100000)"
fill="#000000" stroke="none">
<path d="M3339 6996 c-2 -2 -33 -6 -69 -9 -217 -19 -476 -91 -705 -197 -342
-158 -659 -432 -883 -762 -141 -206 -266 -499 -318 -743 -33 -151 -45 -269
-49 -450 -11 -658 222 -1314 638 -1789 100 -114 172 -185 313 -306 159 -138
464 -315 684 -399 47 -18 94 -37 105 -41 11 -5 54 -18 95 -30 41 -12 89 -26
107 -31 l32 -10 -60 -122 c-43 -88 -58 -129 -55 -150 16 -99 125 -129 192 -52
l31 35 6 -67 c16 -169 44 -250 187 -547 78 -163 98 -242 95 -361 -3 -88 -6
-109 -26 -190 -26 -105 -115 -290 -203 -423 -63 -96 -75 -136 -52 -180 31 -60
87 -78 146 -47 37 19 123 149 205 310 141 275 181 495 130 730 -2 11 -6 31 -9
45 -9 38 -23 72 -109 250 -88 183 -131 305 -142 395 l-7 60 25 -23 c52 -49
140 -34 173 30 21 41 15 64 -50 197 -36 73 -51 113 -43 115 7 2 39 12 72 21
80 22 267 86 280 95 6 3 30 14 55 23 45 17 150 68 245 121 125 70 316 205 430
306 500 443 816 1083 872 1765 18 220 3 530 -31 670 -2 6 -6 28 -10 50 -34
176 -143 456 -244 625 -12 19 -29 49 -38 65 -45 81 -200 273 -308 381 -336
336 -763 552 -1226 621 -91 13 -471 28 -481 19z m47 -467 c95 -45 136 -155 99
-260 -31 -86 -114 -145 -235 -168 -87 -17 -228 -65 -314 -107 -253 -125 -432
-297 -589 -566 -41 -70 -69 -105 -100 -126 -103 -71 -221 -66 -301 14 -73 73
-76 149 -9 282 88 177 228 364 367 491 22 20 44 41 50 47 34 32 183 138 260
184 107 64 317 155 401 174 6 2 28 8 50 14 59 17 194 40 239 41 22 1 59 -8 82
-20z"/>
</g>
</svg>
